<?xml version="1.0" encoding="UTF-8"?>
<svg width="50" height="50" version="1.1" viewBox="0 0 700 700" xmlns="http://www.w3.org/2000/svg" fill="black">
 <path d="m350 18.668c-144.11 0-261.33 117.23-261.33 261.33s117.23 261.33 261.33 261.33 261.33-117.23 261.33-261.33-117.23-261.33-261.33-261.33zm101.68 278.04-149.33 74.668c-2.6328 1.3047-5.4883 1.957-8.3438 1.957-3.4141 0-6.8125-0.93359-9.8203-2.7812-5.4883-3.4141-8.8477-9.4062-8.8477-15.883v-149.33c0-6.4766 3.3594-12.469 8.8477-15.887 5.5078-3.4336 12.395-3.6953 18.164-0.82031l149.33 74.668c6.3281 3.168 10.324 9.6289 10.324 16.703s-3.9961 13.535-10.324 16.707z" fill="white"/>
</svg>
